<?xml version="1.0" encoding="UTF-8"?>
<svg width="512" height="512" viewBox="0 0 512 512" xmlns="http://www.w3.org/2000/svg">
    <defs>
        <filter id="bladeGlow" x="-25%" y="-25%" width="150%" height="150%">
            <feGaussianBlur stdDeviation="4.5" result="blur" />
            <feMerge>
                <feMergeNode in="blur" />
                <feMergeNode in="SourceGraphic" />
            </feMerge>
        </filter>
    </defs>

    <rect width="512" height="512" fill="#FFFFFF" />

    <path
        d="M20.2447,121.4881h101.2325V20.2445H20.2447v101.2436M0,0h141.7323v141.7324H0V0Z"
        transform="scale(3.6124440229926416)"
        fill="#1E2A78"
    />

    <polygon
        points="30.58,107.7151 55.8901,107.7151 72.4753,85.6059 47.1651,85.6059"
        transform="scale(3.6124440229926416)"
        fill="#626975"
    />
    <polygon
        points="30.58,107.7151 55.8901,107.7151 57.8803,105.062 32.5702,105.062"
        transform="scale(3.6124440229926416)"
        fill="#1D2229"
    />
    <polygon
        points="34.2288,102.8499 59.539,102.8499 61.5291,100.1969 36.219,100.1969"
        transform="scale(3.6124440229926416)"
        fill="#D0D6DE"
    />
    <polygon
        points="39.2038,96.2168 64.5139,96.2168 66.5041,93.5637 41.1939,93.5637"
        transform="scale(3.6124440229926416)"
        fill="#D0D6DE"
    />
    <polygon
        points="44.1798,89.5856 69.49,89.5856 72.4753,85.6059 47.1651,85.6059"
        transform="scale(3.6124440229926416)"
        fill="#EFF3F8"
    />

    <ellipse
        cx="53"
        cy="95.2"
        rx="1.8"
        ry="1.3"
        transform="scale(3.6124440229926416)"
        fill="#8A1026"
    />

    <polygon
        points="47.1651,85.6059 72.4753,85.6059 111.1741,34.0177 85.8638,34.0177"
        transform="scale(3.6124440229926416)"
        fill="#C1122F"
        filter="url(#bladeGlow)"
    />
</svg>
